<svg width="100" height="96" viewBox="0 0 100 96" fill="none" xmlns="http://www.w3.org/2000/svg">
<path d="M22.6195 12.1602C17.3308 14.2783 11.6749 15.7325 7.01416 19.0096C2.35337 22.2867 -1.17132 28.1 0.364788 33.5871C1.55663 37.8364 5.53051 41.1594 5.71084 45.5694C5.85511 49.0891 3.52717 52.163 2.29107 55.4615C-0.20572 62.1256 1.95336 69.8881 6.37152 75.462C10.7897 81.036 17.1587 84.7443 23.6835 87.5837C39.1462 94.2916 56.0931 96.8436 72.8456 94.9872C77.8391 94.4265 82.877 93.4429 87.3034 91.0658C91.7297 88.6886 95.5151 84.7492 96.7528 79.8802C98.4365 73.2653 95.2872 66.1257 97.0085 59.5206C97.6823 56.9304 99.0791 54.5647 99.6742 51.9548C101.105 45.6645 97.6184 39.2397 93.1822 34.5576C88.746 29.8755 83.2704 26.2098 79.2146 21.1933C76.4047 17.7194 74.3456 13.6783 71.457 10.27C65.7814 3.56817 56.6156 -0.389322 47.8219 0.0303619C39.0856 0.445128 30.8607 8.86012 22.6195 12.1602Z" fill="#4BD4D7"/>
</svg>
