<svg width="60" height="60" viewBox="0 0 60 60" fill="none" xmlns="http://www.w3.org/2000/svg">
<g clip-path="url(#clip0_16_8)">
<path d="M45 0H15C6.71573 0 0 6.71573 0 15V45C0 53.2843 6.71573 60 15 60H45C53.2843 60 60 53.2843 60 45V15C60 6.71573 53.2843 0 45 0Z" fill="#FDC9B3"/>
<path d="M14.7632 18.9869C14.7632 17.2064 16.2064 15.7632 17.9869 15.7632H38.25C40.0304 15.7632 41.4737 17.2064 41.4737 18.9869V27.5134C41.9132 27.3579 42.3801 27.2764 42.8553 27.2764C43.3304 27.2764 43.7971 27.3579 44.2369 27.5134V18.9869C44.2369 15.6804 41.5564 13 38.25 13H17.9869C14.6804 13 12 15.6804 12 18.9869V39.25C12 42.5564 14.6804 45.2369 17.9869 45.2369H26.5134C26.3579 44.7971 26.2764 44.3304 26.2764 43.8551C26.2764 43.3801 26.3579 42.9132 26.5134 42.4737H17.9869C16.2064 42.4737 14.7632 41.0304 14.7632 39.25V18.9869ZM17.5263 20.3685C17.5263 19.3511 18.3511 18.5263 19.3685 18.5263H23.0526C24.07 18.5263 24.8948 19.3511 24.8948 20.3685V24.0526C24.8948 25.07 24.07 25.8948 23.0526 25.8948H19.3685C18.3511 25.8948 17.5263 25.07 17.5263 24.0526V20.3685ZM27.6579 20.3685C27.6579 19.3511 28.4826 18.5263 29.5 18.5263H36.8684C37.8858 18.5263 38.7106 19.3511 38.7106 20.3685V24.0526C38.7106 25.07 37.8858 25.8948 36.8684 25.8948H29.5C28.4826 25.8948 27.6579 25.07 27.6579 24.0526V20.3685ZM17.5263 30.5C17.5263 29.4826 18.3511 28.6579 19.3685 28.6579H23.0526C24.07 28.6579 24.8948 29.4826 24.8948 30.5V37.8684C24.8948 38.8858 24.07 39.7106 23.0526 39.7106H19.3685C18.3511 39.7106 17.5263 38.8858 17.5263 37.8684V30.5ZM43.8321 30.4442C43.5732 30.185 43.2217 30.0395 42.8553 30.0395C42.4889 30.0395 42.1374 30.185 41.8784 30.4442L39.1152 33.2073C38.5757 33.7469 38.5757 34.6215 39.1152 35.1611C39.6548 35.7007 40.5294 35.7007 41.069 35.1611L41.4737 34.7566V39.25C41.4737 41.0303 40.0304 42.4737 38.25 42.4737H33.7566L34.1611 42.069C34.7007 41.5294 34.7007 40.6548 34.1611 40.1152C33.6215 39.5757 32.7469 39.5757 32.2073 40.1152L29.4442 42.8783C29.185 43.1374 29.0395 43.4887 29.0395 43.8551C29.0395 44.2217 29.185 44.573 29.4442 44.8321L32.2073 47.5953C32.7469 48.1349 33.6215 48.1349 34.1611 47.5953C34.7007 47.0557 34.7007 46.1811 34.1611 45.6415L33.7563 45.2369H38.25C41.5564 45.2369 44.2369 42.5564 44.2369 39.25V34.7566L44.6415 35.1611C45.1811 35.7007 46.0557 35.7007 46.5953 35.1611C47.1349 34.6215 47.1349 33.7469 46.5953 33.2073L43.8321 30.4442Z" fill="white"/>
</g>
<defs>
<clipPath id="clip0_16_8">
<rect width="60" height="60" fill="white"/>
</clipPath>
</defs>
</svg>
