<svg width="60" height="60" viewBox="0 0 60 60" fill="none" xmlns="http://www.w3.org/2000/svg">
<g clip-path="url(#clip0_16_2)">
<path d="M45 0H15C6.71573 0 0 6.71573 0 15V45C0 53.2843 6.71573 60 15 60H45C53.2843 60 60 53.2843 60 45V15C60 6.71573 53.2843 0 45 0Z" fill="#FDC9B3"/>
<path d="M28.6188 11C38.3501 11 46.2387 18.8886 46.2387 28.6199C46.2387 29.3705 46.1912 30.1116 46.1003 30.8389C45.7621 29.2809 44.8344 27.9141 43.5112 27.0246C42.7162 19.5039 36.351 13.6429 28.6188 13.6429C20.3475 13.6429 13.6429 20.3486 13.6429 28.6199C13.6429 36.8912 20.3475 43.5969 28.6188 43.5969C29.2151 43.5969 29.8029 43.562 30.3812 43.4943V45.3581C30.3812 45.6266 30.4055 45.8899 30.4509 46.1457C29.8483 46.207 29.2373 46.2398 28.6188 46.2398C18.8876 46.2398 11 38.3512 11 28.6199C11 18.8886 18.8876 11 28.6188 11ZM43.5726 29.4688C43.0132 28.7368 42.2385 28.1986 41.3574 27.9299C40.4763 27.6612 39.5331 27.6754 38.6605 27.9706C37.7879 28.2659 37.0298 28.8272 36.4928 29.5757C35.9558 30.3242 35.667 31.2223 35.667 32.1435V33.9058H34.7853C34.0844 33.9058 33.4121 34.1842 32.9165 34.6799C32.4209 35.1755 32.1424 35.8477 32.1424 36.5487V45.3581C32.1424 45.7052 32.2108 46.0489 32.3436 46.3695C32.4764 46.6902 32.6711 46.9815 32.9165 47.227C33.1619 47.4724 33.4533 47.6671 33.7739 47.7999C34.0946 47.9327 34.4383 48.0011 34.7853 48.0011H45.3571C45.7041 48.0011 46.0478 47.9327 46.3685 47.7999C46.6891 47.6671 46.9805 47.4724 47.2259 47.227C47.4713 46.9815 47.666 46.6902 47.7988 46.3695C47.9316 46.0489 48 45.7052 48 45.3581V36.5487C48 35.8477 47.7215 35.1755 47.2259 34.6799C46.7303 34.1842 46.058 33.9058 45.3571 33.9058H44.4764V32.1435C44.4781 31.1767 44.1603 30.2364 43.5726 29.4688ZM39.3788 42.5746C38.9491 42.3907 38.6101 42.0436 38.4363 41.6097C38.2625 41.1758 38.2682 40.6906 38.4521 40.261C38.6361 39.8313 38.9832 39.4923 39.417 39.3185C39.8509 39.1447 40.3361 39.1504 40.7658 39.3343C40.9785 39.4254 41.1713 39.5575 41.333 39.7231C41.4947 39.8886 41.6222 40.0844 41.7082 40.2993C41.7943 40.5141 41.8372 40.7438 41.8344 40.9752C41.8317 41.2066 41.7834 41.4352 41.6924 41.648C41.6013 41.8607 41.4692 42.0535 41.3037 42.2152C41.1381 42.3769 40.9423 42.5044 40.7275 42.5904C40.5126 42.6765 40.2829 42.7194 40.0515 42.7167C39.8201 42.7139 39.5915 42.6657 39.3788 42.5746ZM38.31 32.1445C38.3042 31.9095 38.3455 31.6758 38.4315 31.457C38.5174 31.2382 38.6463 31.0388 38.8104 30.8706C38.9746 30.7023 39.1708 30.5686 39.3874 30.4774C39.604 30.3861 39.8367 30.339 40.0717 30.339C40.3068 30.339 40.5395 30.3861 40.7561 30.4774C40.9727 30.5686 41.1689 30.7023 41.333 30.8706C41.4972 31.0388 41.6261 31.2382 41.712 31.457C41.798 31.6758 41.8393 31.9095 41.8335 32.1445V33.9058H38.31V32.1445ZM26.4168 31.1571L34.2927 23.2812C34.5287 23.0457 34.8449 22.9082 35.178 22.8961C35.5111 22.884 35.8365 22.9982 36.089 23.2159C36.3414 23.4336 36.5023 23.7386 36.5393 24.0699C36.5763 24.4012 36.4868 24.7342 36.2886 25.0023L36.1607 25.1503L27.3513 33.9607C27.1272 34.1846 26.8302 34.3206 26.5143 34.3439C26.1984 34.3672 25.8847 34.2762 25.6302 34.0876L25.4822 33.9607L21.077 29.5555C20.8398 29.3199 20.7008 29.0032 20.6879 28.6691C20.6749 28.3351 20.7891 28.0086 21.0073 27.7553C21.2256 27.5021 21.5317 27.341 21.864 27.3045C22.1962 27.268 22.53 27.3587 22.7981 27.5585L22.9461 27.6864L26.4168 31.1571Z" fill="white"/>
</g>
<defs>
<clipPath id="clip0_16_2">
<rect width="60" height="60" fill="white"/>
</clipPath>
</defs>
</svg>
