<svg width="60" height="60" viewBox="0 0 60 60" fill="none" xmlns="http://www.w3.org/2000/svg">
<g clip-path="url(#clip0_16_11)">
<path d="M45 0H15C6.71573 0 0 6.71573 0 15V45C0 53.2843 6.71573 60 15 60H45C53.2843 60 60 53.2843 60 45V15C60 6.71573 53.2843 0 45 0Z" fill="#FDC9B3"/>
<path d="M19.0939 48.3774C16.8345 48.377 15.0029 46.5455 15.0024 44.286L15 18.8195C14.9995 16.5598 16.8311 14.7274 19.0909 14.7274L20.4499 14.7258L20.451 13.3638C20.451 12.6733 20.964 12.1028 21.6297 12.0124L21.8148 12C22.5053 12 23.0759 12.513 23.1661 13.1788L23.1787 13.3638L23.1776 14.7258H28.6365L28.6374 13.3638C28.6374 12.6733 29.1505 12.1028 29.8163 12.0124L30.0013 12C30.6917 12 31.2623 12.513 31.3528 13.1788L31.3651 13.3638L31.3642 14.7258H36.8159L36.817 13.3638C36.817 12.6733 37.3302 12.1028 37.9958 12.0124L38.1808 12C38.8713 12 39.442 12.513 39.5323 13.1788L39.5446 13.3638L39.5435 14.7258L40.906 14.7274C43.1653 14.7282 44.9967 16.5595 44.9975 18.819L45 38.8219C45 38.9302 44.9871 39.0371 44.9624 39.1405L44.9094 39.3109L44.8276 39.4858L44.7905 39.5442C44.7386 39.6315 44.6742 39.7128 44.6006 39.7864L36.4089 47.9779C36.3613 48.0257 36.3098 48.0701 36.2555 48.1102L36.4089 47.9779C36.3502 48.0368 36.2866 48.0897 36.2191 48.1363L36.0594 48.231L35.847 48.3167L35.6413 48.3632L35.5437 48.3737L35.4446 48.3774H19.0939ZM40.9056 17.4552H19.0725C18.3279 17.4653 17.7277 18.0719 17.7277 18.8191L17.7301 44.2855C17.7303 45.0389 18.3411 45.6497 19.0941 45.6497L34.0791 45.6487L34.0808 41.5498C34.0808 39.3843 35.7632 37.6118 37.8922 37.4678L38.1723 37.4583H42.2712L42.2698 18.8196C42.2696 18.0662 41.6588 17.4555 40.9056 17.4552ZM40.3419 40.186H38.1723C37.4819 40.186 36.9112 40.6991 36.821 41.3647L36.8085 41.5498L36.8068 43.7211L40.3419 40.186ZM21.8152 37.4583H29.0856C29.8389 37.4583 30.4495 38.069 30.4495 38.8221C30.4495 39.5126 29.9366 40.0832 29.2708 40.1737L29.0856 40.186H21.8152C21.0619 40.186 20.4513 39.5753 20.4513 38.8221C20.4513 38.1317 20.9643 37.5611 21.63 37.4706L21.8152 37.4583ZM21.8152 30.1845H38.178C38.9311 30.1845 39.5418 30.7951 39.5418 31.5483C39.5418 32.2388 39.0288 32.8095 38.363 32.8998L38.178 32.9121H21.8152C21.0619 32.9121 20.4513 32.3016 20.4513 31.5483C20.4513 30.8579 20.9643 30.2872 21.63 30.1969L21.8152 30.1845ZM21.8152 22.9107H38.178C38.9311 22.9107 39.5418 23.5213 39.5418 24.2746C39.5418 24.965 39.0288 25.5356 38.363 25.626L38.178 25.6384H21.8152C21.0619 25.6384 20.4513 25.0277 20.4513 24.2746C20.4513 23.584 20.9643 23.0135 21.63 22.9232L21.8152 22.9107Z" fill="white"/>
</g>
<defs>
<clipPath id="clip0_16_11">
<rect width="60" height="60" fill="white"/>
</clipPath>
</defs>
</svg>
