<svg width="60" height="60" viewBox="0 0 60 60" fill="none" xmlns="http://www.w3.org/2000/svg">
<g clip-path="url(#clip0_16_5)">
<path d="M45 0H15C6.71573 0 0 6.71573 0 15V45C0 53.2843 6.71573 60 15 60H45C53.2843 60 60 53.2843 60 45V15C60 6.71573 53.2843 0 45 0Z" fill="#FDC9B3"/>
<path d="M31.6887 26.8755C32.6861 26.8758 33.6462 27.2546 34.3751 27.9354C35.104 28.6162 35.5474 29.5482 35.6158 30.5432L35.6263 30.813V43.0635C35.6262 44.0612 35.2474 45.0217 34.5664 45.7509C33.8854 46.48 32.9529 46.9235 31.9575 46.9916L31.6877 47.0011H15.9375C14.94 47.0007 13.9798 46.6218 13.2508 45.9408C12.5219 45.2598 12.0786 44.3275 12.0105 43.3323L12 43.0635V30.813C12.0001 29.8153 12.3789 28.8548 13.0599 28.1257C13.7409 27.3965 14.6733 26.9531 15.6687 26.885L15.9375 26.8755H31.6887ZM45.6885 26.8755C46.3532 26.8755 46.9023 27.369 46.9895 28.0095L47 28.188V43.0635C47 44.0609 46.6214 45.0211 45.9409 45.7502C45.2603 46.4793 44.3284 46.923 43.3334 46.9916L43.0635 47.0011H39.5628C39.2293 47.0023 38.9079 46.8765 38.6638 46.6494C38.4197 46.4222 38.2712 46.1107 38.2485 45.778C38.2258 45.4453 38.3305 45.1165 38.5415 44.8582C38.7524 44.6 39.0538 44.4317 39.3843 44.3876L39.5628 44.376H43.0635C43.3808 44.3762 43.6874 44.2614 43.9266 44.0529C44.1658 43.8444 44.3213 43.5564 44.3645 43.242L44.375 43.0635V28.188C44.375 27.4635 44.964 26.8755 45.6885 26.8755ZM31.6887 29.5005H15.9386C15.6211 29.5001 15.3143 29.6148 15.0749 29.8233C14.8355 30.0318 14.6798 30.32 14.6366 30.6345L14.6261 30.813V43.0635C14.6261 43.7282 15.1196 44.2763 15.7601 44.3634L15.9386 44.376H31.6887C32.0059 44.3759 32.3122 44.261 32.5512 44.0526C32.7901 43.8441 32.9455 43.5562 32.9887 43.242L33.0002 43.0635V30.813C33.0002 30.0885 32.4133 29.5005 31.6887 29.5005ZM27.3134 39.126C28.0379 39.126 28.6259 39.714 28.6259 40.4385C28.6259 41.1031 28.0305 41.751 27.3134 41.751H20.3129C19.5884 41.751 19.0004 41.163 19.0004 40.4385C19.0004 39.7738 19.5958 39.126 20.3129 39.126H27.3134ZM19.0004 32.1256C19.2338 32.1198 19.466 32.1609 19.6833 32.2462C19.9006 32.3316 20.0986 32.4596 20.2657 32.6226C20.4328 32.7857 20.5656 32.9805 20.6563 33.1957C20.7469 33.4108 20.7937 33.6419 20.7937 33.8754C20.7937 34.1089 20.7469 34.34 20.6563 34.5551C20.5656 34.7703 20.4328 34.9651 20.2657 35.1282C20.0986 35.2912 19.9006 35.4192 19.6833 35.5046C19.466 35.5899 19.2338 35.631 19.0004 35.6252C18.5438 35.6141 18.1096 35.4248 17.7905 35.0978C17.4715 34.7709 17.2929 34.3322 17.2929 33.8754C17.2929 33.4186 17.4715 32.9799 17.7905 32.653C18.1096 32.326 18.5438 32.1367 19.0004 32.1256ZM28.6259 32.1256C28.8593 32.1198 29.0914 32.1609 29.3088 32.2462C29.5261 32.3316 29.7241 32.4596 29.8912 32.6226C30.0583 32.7857 30.1911 32.9805 30.2817 33.1957C30.3724 33.4108 30.4191 33.6419 30.4191 33.8754C30.4191 34.1089 30.3724 34.34 30.2817 34.5551C30.1911 34.7703 30.0583 34.9651 29.8912 35.1282C29.7241 35.2912 29.5261 35.4192 29.3088 35.5046C29.0914 35.5899 28.8593 35.631 28.6259 35.6252C28.1692 35.6141 27.735 35.4248 27.416 35.0978C27.0969 34.7709 26.9184 34.3322 26.9184 33.8754C26.9184 33.4186 27.0969 32.9799 27.416 32.653C27.735 32.326 28.1692 32.1367 28.6259 32.1256ZM23.8126 32.1256C24.046 32.1198 24.2782 32.1609 24.4955 32.2462C24.7128 32.3316 24.9108 32.4596 25.0779 32.6226C25.245 32.7857 25.3778 32.9805 25.4685 33.1957C25.5591 33.4108 25.6059 33.6419 25.6059 33.8754C25.6059 34.1089 25.5591 34.34 25.4685 34.5551C25.3778 34.7703 25.245 34.9651 25.0779 35.1282C24.9108 35.2912 24.7128 35.4192 24.4955 35.5046C24.2782 35.5899 24.046 35.631 23.8126 35.6252C23.356 35.6141 22.9218 35.4248 22.6027 35.0978C22.2837 34.7709 22.1051 34.3322 22.1051 33.8754C22.1051 33.4186 22.2837 32.9799 22.6027 32.653C22.9218 32.326 23.356 32.1367 23.8126 32.1256ZM45.6885 12C45.8856 12.0005 46.08 12.045 46.2576 12.1302L46.3343 12.1701C46.3843 12.1984 46.4323 12.23 46.4781 12.2646L46.6167 12.3843L46.6188 12.3864L46.7081 12.4862L46.7249 12.5093L46.7858 12.5933C46.8937 12.7562 46.9633 12.9414 46.9895 13.1351L47 13.3136V22.0633C46.9993 22.3954 46.8727 22.7149 46.6457 22.9574C46.4187 23.1998 46.1083 23.3472 45.777 23.3699C45.4456 23.3925 45.118 23.2887 44.8602 23.0794C44.6024 22.87 44.4335 22.5707 44.3876 22.2418L44.376 22.0633V16.4804L36.5534 24.303C36.3189 24.5355 36.0053 24.6711 35.6752 24.6827C35.3451 24.6942 35.0227 24.5808 34.7725 24.3652C34.5223 24.1496 34.3626 23.8475 34.3252 23.5193C34.2879 23.1912 34.3757 22.8609 34.571 22.5946L34.697 22.4476L42.5175 14.625H36.9388C36.6213 14.6254 36.3145 14.5108 36.0751 14.3023C35.8357 14.0938 35.68 13.8055 35.6368 13.491L35.6263 13.3125C35.6263 12.6489 36.1198 12.0998 36.7603 12.0126L36.9388 12H45.6885ZM30.813 12C31.1465 11.9988 31.4679 12.1245 31.712 12.3517C31.9561 12.5788 32.1046 12.8904 32.1273 13.2231C32.1501 13.5558 32.0453 13.8846 31.8343 14.1428C31.6234 14.4011 31.3221 14.5694 30.9915 14.6135L30.813 14.625H15.9386C15.6211 14.6246 15.3143 14.7393 15.0749 14.9478C14.8355 15.1563 14.6798 15.4445 14.6366 15.759L14.6261 15.9375V22.938C14.6295 23.2729 14.5047 23.5964 14.2773 23.8423C14.05 24.0883 13.7372 24.238 13.403 24.2608C13.0689 24.2836 12.7386 24.1778 12.48 23.9651C12.2213 23.7523 12.0537 23.4487 12.0115 23.1165L12.001 22.938V15.9375C12.0011 14.94 12.3798 13.9796 13.0606 13.2505C13.7414 12.5214 14.6735 12.0778 15.6687 12.0095L15.9375 12H30.813Z" fill="white"/>
</g>
<defs>
<clipPath id="clip0_16_5">
<rect width="60" height="60" fill="white"/>
</clipPath>
</defs>
</svg>
