<svg width="169" height="48" viewBox="0 0 169 48" fill="none" xmlns="http://www.w3.org/2000/svg">
<g clip-path="url(#clip0_202_13572)">
<path fill-rule="evenodd" clip-rule="evenodd" d="M45.4463 10.1058L31.2002 37.9553H17.8191L23.7811 26.4133H23.5136C18.5951 32.7982 11.2564 37.0014 0.800049 37.9553V26.5731C0.800049 26.5731 7.48925 26.178 11.4216 22.0436H0.800049V10.1061H12.7376V19.9245L13.0055 19.9234L17.8836 10.1061H26.9117V19.8622L27.1796 19.8618L32.2406 10.1058H45.4463Z" fill="#146EF5"/>
<path d="M123.131 34.8813H126.975V12.8134H123.131V34.8813Z" fill="#F3F3F3"/>
<path fill-rule="evenodd" clip-rule="evenodd" d="M101.936 34.6559C102.772 35.0034 103.621 35.1769 104.485 35.1769C105.912 35.1769 107.189 34.8296 108.316 34.1349C109.442 33.4402 110.315 32.4824 110.935 31.262C111.555 30.0321 111.864 28.6379 111.864 27.0794C111.864 25.5208 111.545 24.1267 110.907 22.8967C110.268 21.6668 109.381 20.7139 108.245 20.0379C107.109 19.3526 105.818 19.0146 104.372 19.024C103.452 19.024 102.57 19.2023 101.725 19.5591C100.88 19.9159 100.176 20.4229 99.6124 21.0801C99.5689 21.1301 99.5267 21.1806 99.4857 21.2317V12.8275H95.6269V34.8813H99.4575L99.4498 32.8211C99.5489 32.9425 99.6548 33.0612 99.7674 33.1772C100.378 33.8063 101.101 34.2992 101.936 34.6559ZM105.879 31.093C105.25 31.4778 104.532 31.6704 103.725 31.6704C102.927 31.6704 102.194 31.4732 101.528 31.0789C100.861 30.6751 100.331 30.126 99.9363 29.4312C99.5514 28.7365 99.359 27.9478 99.359 27.0653C99.3495 26.1828 99.5373 25.3941 99.9222 24.6994C100.317 23.9952 100.847 23.4507 101.514 23.0657C102.18 22.6714 102.917 22.479 103.725 22.4883C104.532 22.479 105.25 22.6667 105.879 23.0517C106.518 23.4272 107.006 23.967 107.344 24.6712C107.691 25.3659 107.865 26.164 107.865 27.0653C107.865 27.9666 107.691 28.7646 107.344 29.4594C107.006 30.1541 106.518 30.6986 105.879 31.093Z" fill="#F3F3F3"/>
<path d="M51.0161 14.1513H55.41L59.3405 28.5055L63.5217 14.1513H67.1833L71.718 28.2175L75.4921 14.1513H79.5198L73.5768 34.8813H69.7885L65.1775 21.1398L60.9445 34.8813H57.1139L51.0161 14.1513Z" fill="#F3F3F3"/>
<path fill-rule="evenodd" clip-rule="evenodd" d="M86.0084 35.2475C84.478 35.2568 83.0979 34.9187 81.8679 34.2334C80.6475 33.5387 79.6852 32.5763 78.981 31.3465C78.2863 30.1165 77.9388 28.713 77.9388 27.1357C77.9388 25.6054 78.2957 24.2205 79.0092 22.9812C79.7226 21.742 80.6898 20.7749 81.9102 20.0802C83.1307 19.3854 84.492 19.038 85.9943 19.038C87.6842 19.038 89.1629 19.4136 90.4304 20.1647C91.7072 20.9157 92.6602 21.9814 93.2892 23.3615C93.9276 24.7322 94.1576 26.3048 93.9793 28.0792H81.9162C81.9499 28.7861 82.1263 29.4294 82.4454 30.0085C82.8021 30.647 83.2998 31.1446 83.9381 31.5014C84.5765 31.8581 85.2901 32.0365 86.0788 32.0365C86.6796 32.0272 87.2382 31.9238 87.7546 31.7268C88.271 31.5202 88.7075 31.2432 89.0644 30.8959C89.4304 30.5484 89.6886 30.1541 89.8388 29.7129H93.8666C93.6225 30.7925 93.1343 31.7549 92.402 32.5999C91.6696 33.4354 90.7495 34.0879 89.6417 34.5574C88.5338 35.0267 87.3227 35.2568 86.0084 35.2475ZM82.4595 24.2064C82.2344 24.5988 82.0786 25.0213 81.9918 25.4739H89.9881C89.9301 24.9021 89.7536 24.381 89.4586 23.9107C89.1207 23.3568 88.6606 22.9296 88.0785 22.6292C87.4964 22.3194 86.8393 22.1644 86.1069 22.1644C85.3277 22.1644 84.6189 22.3428 83.9805 22.6996C83.342 23.0564 82.8349 23.5586 82.4595 24.2064Z" fill="#F3F3F3"/>
<path d="M114.695 19.362C114.695 18.1039 114.982 16.9866 115.554 16.0102C116.127 15.0244 116.93 14.2593 117.962 13.7147C119.004 13.1608 120.22 12.8744 121.61 12.8557V16.2778C120.962 16.2872 120.408 16.4233 119.948 16.6862C119.497 16.9397 119.15 17.3105 118.906 17.7987C118.681 18.2482 118.56 18.7693 118.542 19.362H121.525V22.6151H118.54V34.8813H114.695V22.6151H112.217V19.362H114.695Z" fill="#F3F3F3"/>
<path fill-rule="evenodd" clip-rule="evenodd" d="M136.749 35.2193C135.181 35.2193 133.777 34.8765 132.538 34.1912C131.308 33.4965 130.341 32.5387 129.637 31.3184C128.942 30.0884 128.595 28.6942 128.595 27.1357C128.595 25.5678 128.942 24.1689 129.637 22.939C130.341 21.6997 131.308 20.7374 132.538 20.052C133.777 19.3666 135.181 19.024 136.749 19.024C138.326 19.024 139.734 19.3666 140.974 20.052C142.222 20.7374 143.194 21.695 143.889 22.9249C144.583 24.1548 144.936 25.5584 144.945 27.1357C144.936 28.6942 144.583 30.0884 143.889 31.3184C143.203 32.5387 142.236 33.4965 140.988 34.1912C139.739 34.8765 138.326 35.2193 136.749 35.2193ZM136.749 31.6845C137.575 31.6845 138.307 31.4967 138.946 31.1211C139.584 30.7362 140.077 30.201 140.424 29.5157C140.772 28.8209 140.945 28.0277 140.945 27.1357C140.945 26.2344 140.772 25.4364 140.424 24.7416C140.077 24.0468 139.584 23.5117 138.946 23.1361C138.307 22.7512 137.575 22.5588 136.749 22.5588C135.932 22.5588 135.204 22.7512 134.566 23.1361C133.937 23.5117 133.449 24.0468 133.101 24.7416C132.754 25.4364 132.585 26.2344 132.594 27.1357C132.594 28.0277 132.768 28.8209 133.115 29.5157C133.472 30.201 133.96 30.7362 134.58 31.1211C135.209 31.4967 135.932 31.6845 136.749 31.6845Z" fill="#F3F3F3"/>
<path d="M149.099 19.3619H144.818L149.451 34.8813H153.198L156.245 24.9691L159.535 34.8813H163.225L167.872 19.3619H164L161.364 29.0217L158.451 19.3619H154.704L151.805 29.2346L149.099 19.3619Z" fill="#F3F3F3"/>
</g>
<defs>
<clipPath id="clip0_202_13572">
<rect width="168" height="48" fill="white" transform="translate(0.800049)"/>
</clipPath>
</defs>
</svg>
